<mxfile host="Electron" agent="Mozilla/5.0 (Windows NT 10.0; Win64; x64) AppleWebKit/537.36 (KHTML, like Gecko) draw.io/25.0.2 Chrome/128.0.6613.186 Electron/32.2.5 Safari/537.36" version="25.0.2">
  <diagram name="Pagina-1" id="TZsronRRYSx1RGmPqCaE">
    <mxGraphModel dx="574" dy="338" grid="1" gridSize="10" guides="1" tooltips="1" connect="1" arrows="1" fold="1" page="1" pageScale="1" pageWidth="413" pageHeight="291" math="0" shadow="0">
      <root>
        <mxCell id="0" />
        <mxCell id="1" parent="0" />
        <mxCell id="KHVRTdkGZqkCHPeb7DFQ-15" value="Header (8 byte)" style="shape=partialRectangle;whiteSpace=wrap;html=1;bottom=1;right=1;left=1;top=0;fillColor=none;routingCenterX=-0.5;direction=west;labelPosition=center;verticalLabelPosition=top;align=center;verticalAlign=bottom;" vertex="1" parent="1">
          <mxGeometry x="32" y="120" width="180" height="26" as="geometry" />
        </mxCell>
        <mxCell id="KHVRTdkGZqkCHPeb7DFQ-8" value="&lt;font style=&quot;font-size: 10px;&quot;&gt;4 byte&lt;/font&gt;" style="text;html=1;align=center;verticalAlign=middle;whiteSpace=wrap;rounded=0;" vertex="1" parent="1">
          <mxGeometry x="58.25" y="122" width="37.5" height="14" as="geometry" />
        </mxCell>
        <mxCell id="KHVRTdkGZqkCHPeb7DFQ-9" value="&lt;font style=&quot;font-size: 10px;&quot;&gt;4 byte&lt;/font&gt;" style="text;html=1;align=center;verticalAlign=middle;whiteSpace=wrap;rounded=0;" vertex="1" parent="1">
          <mxGeometry x="148.25" y="122" width="37.5" height="14" as="geometry" />
        </mxCell>
        <mxCell id="KHVRTdkGZqkCHPeb7DFQ-10" value="&lt;font style=&quot;font-size: 10px;&quot;&gt;512 byte&lt;/font&gt;" style="text;html=1;align=center;verticalAlign=middle;whiteSpace=wrap;rounded=0;" vertex="1" parent="1">
          <mxGeometry x="272.63" y="122" width="48.75" height="14" as="geometry" />
        </mxCell>
        <mxCell id="KHVRTdkGZqkCHPeb7DFQ-1" value="Type" style="rounded=0;whiteSpace=wrap;html=1;fillColor=#ffcc99;strokeColor=#36393d;" vertex="1" parent="1">
          <mxGeometry x="32" y="136" width="90" height="34" as="geometry" />
        </mxCell>
        <mxCell id="KHVRTdkGZqkCHPeb7DFQ-2" value="Lenght" style="rounded=0;whiteSpace=wrap;html=1;fillColor=#cce5ff;strokeColor=#36393d;" vertex="1" parent="1">
          <mxGeometry x="122" y="136" width="90" height="34" as="geometry" />
        </mxCell>
        <mxCell id="KHVRTdkGZqkCHPeb7DFQ-3" value="Payload" style="rounded=0;whiteSpace=wrap;html=1;fillColor=#eeeeee;strokeColor=#36393d;" vertex="1" parent="1">
          <mxGeometry x="212" y="136" width="170" height="34" as="geometry" />
        </mxCell>
      </root>
    </mxGraphModel>
  </diagram>
</mxfile>
